<svg width="14px" height="20px" viewBox="0 0 14 20" version="1.1">
    <title>39542931-3549-44F5-BFBD-463633A440EF</title>
    <g id="Landing-page" stroke="none" stroke-width="1" fill="none" fill-rule="evenodd">
        <g id="LP---3.0" transform="translate(-975.000000, -6067.000000)" fill="#48484A">
            <g id="Footer" transform="translate(0.000000, 6004.000000)">
                <g id="Line" transform="translate(975.000000, 60.000000)">
                    <g id="Icon" transform="translate(0.000000, 3.000000)">
                        <path d="M7,0 C3.13,0 0,3.13 0,7 C0,12.25 7,20 7,20 C7,20 14,12.25 14,7 C14,3.13 10.87,0 7,0 L7,0 Z M7,9.5 C5.62,9.5 4.5,8.38 4.5,7 C4.5,5.62 5.62,4.5 7,4.5 C8.38,4.5 9.5,5.62 9.5,7 C9.5,8.38 8.38,9.5 7,9.5 L7,9.5 Z" id="Mask">
                        </path>
                    </g>
                </g>
            </g>
        </g>
    </g>
</svg>
