
<svg width="20px" height="16px" viewBox="0 0 20 16" version="1.1">
    <title>FFBE7B9A-37E4-4F75-82E8-2522124CC4AA</title>
    <g id="Landing-page" stroke="none" stroke-width="1" fill="none" fill-rule="evenodd">
        <g id="LP---3.0" transform="translate(-972.000000, -6189.000000)" fill="#48484A">
            <g id="Footer" transform="translate(0.000000, 6004.000000)">
                <g id="Line" transform="translate(972.000000, 180.000000)">
                    <g id="Icon" transform="translate(0.000000, 5.000000)">
                        <g id="Icon/Message">
                            <path d="M18,0 L2,0 C0.9,0 0.01,0.9 0.01,2 L0,14 C0,15.1 0.9,16 2,16 L18,16 C19.1,16 20,15.1 20,14 L20,2 C20,0.9 19.1,0 18,0 L18,0 Z M18,4 L10,9 L2,4 L2,2 L10,7 L18,2 L18,4 L18,4 Z" id="Shape">
                            </path>
                        </g>
                    </g>
                </g>
            </g>
        </g>
    </g>
</svg>