<svg width="18px" height="18px" viewBox="0 0 18 18" version="1.1">
    <title>5DE32BB7-99C7-4704-AA4D-C0C6024A985A</title>
    <g id="Landing-page" stroke="none" stroke-width="1" fill="none" fill-rule="evenodd">
        <g id="LP---3.0" transform="translate(-521.000000, -6151.000000)" fill="#48484A">
            <g id="Footer" transform="translate(0.000000, 6004.000000)">
                <g id="Column" transform="translate(490.000000, 59.000000)">
                    <g id="Icon" transform="translate(31.000000, 88.000000)">
                        <path d="M11.7453585,17.3333333 L11.7453585,11.3122675 L13.9894181,11.3122675 L14.3254342,8.706736 L11.7453585,8.706736 L11.7453585,7.04326876 C11.7453585,6.28890726 11.9548326,5.77483479 13.0365686,5.77483479 L14.4162711,5.77423189 L14.4162711,3.44382362 C14.1776568,3.4120709 13.3586511,3.3411297 12.4058016,3.3411297 C10.4165675,3.3411297 9.05468413,4.55536968 9.05468413,6.78522769 L9.05468413,8.706736 L6.80486344,8.706736 L6.80486344,11.3122675 L9.05468413,11.3122675 L9.05468413,17.3333333 L4.66666667,17.3333333 C2.45752767,17.3333333 0.666666667,15.5424723 0.666666667,13.3333333 L0.666666667,4.66666667 C0.666666667,2.45752767 2.45752767,0.666666667 4.66666667,0.666666667 L13.3333333,0.666666667 C15.5424723,0.666666667 17.3333333,2.45752767 17.3333333,4.66666667 L17.3333333,13.3333333 C17.3333333,15.5424723 15.5424723,17.3333333 13.3333333,17.3333333 L11.7453585,17.3333333 L11.7453585,17.3333333 Z" id="Path">
                        </path>
                    </g>
                </g>    
            </g>
        </g>
    </g>
</svg>