<svg width="18px" height="18px" viewBox="0 0 18 18" version="1.1">
    <title>831DA784-84D3-4090-B429-2060ACD87717</title>
    <g id="Landing-page" stroke="none" stroke-width="1" fill="none" fill-rule="evenodd">
        <g id="LP---3.0" transform="translate(-1546.000000, -23.000000)" fill="#48484A">
            <g id="header">
                <g id="Group-28" transform="translate(1141.000000, 20.000000)">
                    <g id="Group-13" transform="translate(404.000000, 0.000000)">
                        <g id="Icon-Copy" transform="translate(1.000000, 3.000000)">
                            <g id="Icon/World" transform="translate(0.666667, 0.666667)">
                                <path d="M8.325,0 C3.725,0 0,3.73333333 0,8.33333333 C0,12.9333333 3.725,16.6666667 8.325,16.6666667 C12.9333333,16.6666667 16.6666667,12.9333333 16.6666667,8.33333333 C16.6666667,3.73333333 12.9333333,0 8.325,0 Z M14.1,5 L11.6416667,5 C11.375,3.95833333 10.9916667,2.95833333 10.4916667,2.03333333 C12.025,2.55833333 13.3,3.625 14.1,5 Z M8.33333333,1.7 C9.025,2.7 9.56666667,3.80833333 9.925,5 L6.74166667,5 C7.1,3.80833333 7.64166667,2.7 8.33333333,1.7 Z M1.88333333,10 C1.75,9.46666667 1.66666667,8.90833333 1.66666667,8.33333333 C1.66666667,7.75833333 1.75,7.2 1.88333333,6.66666667 L4.7,6.66666667 C4.63333333,7.21666667 4.58333333,7.76666667 4.58333333,8.33333333 C4.58333333,8.9 4.63333333,9.45 4.7,10 L1.88333333,10 Z M2.56666667,11.6666667 L5.025,11.6666667 C5.29166667,12.7083333 5.675,13.7083333 6.175,14.6333333 C4.64166667,14.1083333 3.36666667,13.05 2.56666667,11.6666667 L2.56666667,11.6666667 Z M5.025,5 L2.56666667,5 C3.36666667,3.61666667 4.64166667,2.55833333 6.175,2.03333333 C5.675,2.95833333 5.29166667,3.95833333 5.025,5 L5.025,5 Z M8.33333333,14.9666667 C7.64166667,13.9666667 7.1,12.8583333 6.74166667,11.6666667 L9.925,11.6666667 C9.56666667,12.8583333 9.025,13.9666667 8.33333333,14.9666667 Z M10.2833333,10 L6.38333333,10 C6.30833333,9.45 6.25,8.9 6.25,8.33333333 C6.25,7.76666667 6.30833333,7.20833333 6.38333333,6.66666667 L10.2833333,6.66666667 C10.3583333,7.20833333 10.4166667,7.76666667 10.4166667,8.33333333 C10.4166667,8.9 10.3583333,9.45 10.2833333,10 Z M10.4916667,14.6333333 C10.9916667,13.7083333 11.375,12.7083333 11.6416667,11.6666667 L14.1,11.6666667 C13.3,13.0416667 12.025,14.1083333 10.4916667,14.6333333 L10.4916667,14.6333333 Z M11.9666667,10 C12.0333333,9.45 12.0833333,8.9 12.0833333,8.33333333 C12.0833333,7.76666667 12.0333333,7.21666667 11.9666667,6.66666667 L14.7833333,6.66666667 C14.9166667,7.2 15,7.75833333 15,8.33333333 C15,8.90833333 14.9166667,9.46666667 14.7833333,10 L11.9666667,10 Z" id="Shape">
                                </path>
                            </g>
                        </g>
                    </g>
                </g>
            </g>
        </g>
    </g>
</svg>