<svg width="20px" height="17px" viewBox="0 0 20 17" version="1.1">
    <title>D69754EE-51FC-41E5-8B5E-C96227428C2E</title>
    <g id="Landing-page" stroke="none" stroke-width="1" fill="none" fill-rule="evenodd">
        <g id="LP---3.0" transform="translate(-550.000000, -6151.000000)" fill="#48484A">
            <g id="Footer" transform="translate(0.000000, 6004.000000)">
                <g id="Column" transform="translate(490.000000, 59.000000)">
                    <g id="Icon" transform="translate(60.000000, 88.000000)">
                        <path d="M2.37166667,3.90583333 C2.39666667,3.66 2.3025,3.4175 2.11916667,3.2525 L0.2525,1.0025 L0.2525,0.666666667 L6.05083333,0.666666667 L10.5325,10.4958333 L14.4725,0.666666667 L20,0.666666667 L20,1.0025 L18.4033333,2.53333333 C18.2658333,2.63833333 18.1975,2.81083333 18.2258333,2.98166667 L18.2258333,14.23 C18.1975,14.4 18.2658333,14.5725 18.4033333,14.6775 L19.9625,16.2083333 L19.9625,16.5441667 L12.1191667,16.5441667 L12.1191667,16.2083333 L13.735,14.64 C13.8933333,14.4816667 13.8933333,14.435 13.8933333,14.1925 L13.8933333,5.10083333 L9.4025,16.5075 L8.79583333,16.5075 L3.56666667,5.10083333 L3.56666667,12.7458333 C3.52333333,13.0666667 3.63,13.3908333 3.85583333,13.6225 L5.95666667,16.1708333 L5.95666667,16.5075 L0,16.5075 L0,16.1708333 L2.10083333,13.6225 C2.32583333,13.39 2.42583333,13.0641667 2.37166667,12.7458333 L2.37166667,3.90583333 L2.37166667,3.90583333 Z" id="Shape">
                        </path>
                    </g>
                </g>
            </g>
        </g>
    </g>
</svg>