<svg width="18px" height="14px" viewBox="0 0 18 14" version="1.1">
    <title>A1A83A5A-6114-425D-8C72-86AFF6F8DFC1</title>
    <g id="Landing-page" stroke="none" stroke-width="1" fill="none" fill-rule="evenodd">
        <g id="LP---3.0" transform="translate(-491.000000, -6153.000000)" fill="#48484A">
            <g id="Footer" transform="translate(0.000000, 6004.000000)">
                <g id="Column" transform="translate(490.000000, 59.000000)">
                     <g id="Icon" transform="translate(1.000000, 90.000000)">
                        <path d="M17.3333333,1.93680556 C16.7201389,2.20902778 16.0611111,2.39236111 15.3694444,2.475 C16.0756944,2.05208333 16.6180556,1.38194444 16.8729167,0.583333333 C16.2125,0.975 15.4805556,1.25972222 14.7013889,1.41319444 C14.0784722,0.748611111 13.1888889,0.333333333 12.2055556,0.333333333 C9.99791667,0.333333333 8.37569444,2.39305556 8.87430556,4.53125 C6.03333333,4.38888889 3.51388889,3.02777778 1.82708333,0.959027778 C0.93125,2.49583333 1.3625,4.50625 2.88472222,5.52430556 C2.325,5.50625 1.79722222,5.35277778 1.33680556,5.09652778 C1.29930556,6.68055556 2.43472222,8.1625 4.07916667,8.49236111 C3.59791667,8.62291667 3.07083333,8.65347222 2.53472222,8.55069444 C2.96944444,9.90902778 4.23194444,10.8972222 5.72916667,10.925 C4.29166667,12.0520833 2.48055556,12.5555556 0.666666667,12.3416667 C2.17986111,13.3118056 3.97777778,13.8777778 5.90833333,13.8777778 C12.2569444,13.8777778 15.84375,8.51597222 15.6270833,3.70694444 C16.2951389,3.22430556 16.875,2.62222222 17.3333333,1.93680556 Z" id="Shape">
                        </path>
                    </g>
                </g>
            </g>
        </g>
    </g>
</svg>