<svg width="18px" height="12px" viewBox="0 0 18 12" version="1.1">
    <title>54DC454E-A8A7-4E6F-95A0-26DC5635761A</title>
    <g id="Landing-page" stroke="none" stroke-width="1" fill="none" fill-rule="evenodd">
        <g id="LP---3.0" transform="translate(-581.000000, -6154.000000)" fill="#48484A">
            <g id="Footer" transform="translate(0.000000, 6004.000000)">
                <g id="Column" transform="translate(490.000000, 59.000000)">
                    <g id="Icon" transform="translate(91.000000, 91.000000)">
                        <path d="M8.9948203,0.166666667 C8.9948203,0.166666667 14.2141539,0.166666667 15.521518,0.526990077 C16.2318403,0.712291629 16.7979482,1.27840421 16.9832495,1.98872207 C17.3435599,3.29611428 17.3333333,6.01391564 17.3333333,6.01391564 C17.3333333,6.01391564 17.3333333,8.72139933 16.9832495,10.0185101 C16.7979482,10.7391146 16.2318403,11.2949485 15.521518,11.4905419 C14.2141539,11.8302656 8.9948203,11.8302656 8.9948203,11.8302656 C8.9948203,11.8302656 3.79610826,11.8302656 2.47842227,11.4802423 C1.76810516,11.2846448 1.20198573,10.7185188 1.00639097,10.0082106 C0.666666667,8.72139603 0.666666667,6.00361609 0.666666667,6.00361609 C0.666666667,6.00361609 0.666666667,3.29611428 1.00639097,1.98872207 C1.20198573,1.27840421 1.77839985,0.701983755 2.47842227,0.506390972 C3.78581357,0.166666667 8.9948203,0.166666667 8.9948203,0.166666667 Z M7.33739739,3.50211191 L7.33739739,8.49482071 L11.6714169,6.00361609 L7.33739739,3.50211191 Z" id="Shape">
                        </path>
                    </g>
                </g>
            </g>
        </g>
    </g>
</svg>